<?xml version="1.0" encoding="UTF-8" standalone="no"?>
<svg
   xmlns:dc="http://purl.org/dc/elements/1.1/"
   xmlns:cc="http://creativecommons.org/ns#"
   xmlns:rdf="http://www.w3.org/1999/02/22-rdf-syntax-ns#"
   xmlns:svg="http://www.w3.org/2000/svg"
   xmlns="http://www.w3.org/2000/svg"
   xmlns:sodipodi="http://sodipodi.sourceforge.net/DTD/sodipodi-0.dtd"
   xmlns:inkscape="http://www.inkscape.org/namespaces/inkscape"
   width="245"
   height="110"
   viewBox="0 0 64.822915 29.104167"
   version="1.1"
   id="svg8"
   inkscape:version="1.0.1 (1.0.1+r74)"
   sodipodi:docname="193-2.svg">
  <defs
     id="defs2" />
  <sodipodi:namedview
     id="base"
     pagecolor="#ffffff"
     bordercolor="#666666"
     borderopacity="1.0"
     inkscape:pageopacity="0.0"
     inkscape:pageshadow="2"
     inkscape:zoom="1.4142136"
     inkscape:cx="-2.3868153"
     inkscape:cy="71.023427"
     inkscape:document-units="mm"
     inkscape:current-layer="text188"
     inkscape:document-rotation="0"
     showgrid="false"
     showguides="false"
     inkscape:guide-bbox="true"
     inkscape:window-width="1920"
     inkscape:window-height="1043"
     inkscape:window-x="1920"
     inkscape:window-y="0"
     inkscape:window-maximized="1"
     units="px">
    <sodipodi:guide
       position="321.20416,352.82709"
       orientation="1,0"
       id="guide190" />
    <sodipodi:guide
       position="452.70207,340.12709"
       orientation="1,0"
       id="guide192" />
    <sodipodi:guide
       position="346.07499,401.77501"
       orientation="0,-1"
       id="guide200" />
    <sodipodi:guide
       position="337.60833,319.22501"
       orientation="0,-1"
       id="guide202" />
  </sodipodi:namedview>
  <metadata
     id="metadata5">
    <rdf:RDF>
      <cc:Work
         rdf:about="">
        <dc:format>image/svg+xml</dc:format>
        <dc:type
           rdf:resource="http://purl.org/dc/dcmitype/StillImage" />
        <dc:title />
      </cc:Work>
    </rdf:RDF>
  </metadata>
  <g
     inkscape:label="Layer 1"
     inkscape:groupmode="layer"
     id="layer1">
    <g
       id="g93"
       transform="matrix(6.5522066,0,0,6.5522066,116.36279,-108.90292)" />
    <g
       id="g95"
       transform="matrix(6.5522066,0,0,6.5522066,116.36279,-108.90292)" />
    <g
       id="g97"
       transform="matrix(6.5522066,0,0,6.5522066,116.36279,-108.90292)" />
    <g
       id="g99"
       transform="matrix(6.5522066,0,0,6.5522066,116.36279,-108.90292)" />
    <g
       id="g101"
       transform="matrix(6.5522066,0,0,6.5522066,116.36279,-108.90292)" />
    <g
       id="g103"
       transform="matrix(6.5522066,0,0,6.5522066,116.36279,-108.90292)" />
    <g
       id="g105"
       transform="matrix(6.5522066,0,0,6.5522066,116.36279,-108.90292)" />
    <g
       id="g107"
       transform="matrix(6.5522066,0,0,6.5522066,116.36279,-108.90292)" />
    <g
       id="g109"
       transform="matrix(6.5522066,0,0,6.5522066,116.36279,-108.90292)" />
    <g
       id="g111"
       transform="matrix(6.5522066,0,0,6.5522066,116.36279,-108.90292)" />
    <g
       id="g113"
       transform="matrix(6.5522066,0,0,6.5522066,116.36279,-108.90292)" />
    <g
       id="g115"
       transform="matrix(6.5522066,0,0,6.5522066,116.36279,-108.90292)" />
    <g
       id="g117"
       transform="matrix(6.5522066,0,0,6.5522066,116.36279,-108.90292)" />
    <g
       id="g119"
       transform="matrix(6.5522066,0,0,6.5522066,116.36279,-108.90292)" />
    <g
       id="g121"
       transform="matrix(6.5522066,0,0,6.5522066,116.36279,-108.90292)" />
    <g
       aria-label="193"
       id="text188"
       style="font-style:normal;font-variant:normal;font-weight:normal;font-stretch:normal;font-size:24.3221px;line-height:1.25;font-family:HomepageBaukasten;-inkscape-font-specification:'HomepageBaukasten, Normal';font-variant-ligatures:normal;font-variant-caps:normal;font-variant-numeric:normal;font-variant-east-asian:normal;letter-spacing:-2.2551px;word-spacing:0px;fill:#ea8520;fill-opacity:1;stroke:none;stroke-width:1.05246">
      <rect
         style="fill:none;stroke:none;stroke-width:0.0700879"
         id="rect222"
         width="64.752831"
         height="29.034079"
         x="0.035043191"
         y="0.035044346" />
      <path
         id="path173"
         style="fill:#ffa600;fill-opacity:1;stroke:none;stroke-width:0.654799"
         d="m 16.305318,12.495672 -2.010878,2.46007 -0.1493,0.695374 h 1.603621 l -0.184005,0.872201 h 0.77852 l 0.184004,-0.872201 h 0.459004 l 0.13231,-0.624003 h -0.459056 l 0.539567,-2.531441 z m -0.05433,0.781154 -0.370643,1.750287 h -1.01427 z" />
      <path
         style="fill:#ffa600;fill-opacity:1;stroke:none;stroke-width:0.654798"
         d="m 10.805668,16.522678 h 2.774379 l 0.149294,-0.701288 h -1.769919 c 0.0681,-0.08381 0.145365,-0.156497 0.231799,-0.220667 0.08774,-0.06417 0.246204,-0.166319 0.475384,-0.30841 l 0.366686,-0.225905 c 0.309719,-0.189892 0.538899,-0.362758 0.690812,-0.517945 0.228524,-0.231798 0.371925,-0.498956 0.436095,-0.798198 0.08381,-0.392224 0.02423,-0.705218 -0.178105,-0.943564 -0.204297,-0.237037 -0.519255,-0.35621 -0.947492,-0.35621 -0.541518,0 -0.961899,0.202332 -1.259832,0.607651 -0.156496,0.211501 -0.278943,0.48979 -0.363412,0.834868 h 0.77397 c 0.05631,-0.227215 0.120484,-0.394843 0.193166,-0.498301 0.126376,-0.18007 0.311029,-0.271086 0.55265,-0.271086 0.177449,0 0.301861,0.05697 0.371925,0.170902 0.07006,0.11328 0.0884,0.256681 0.04976,0.426928 -0.04387,0.21019 -0.168937,0.403356 -0.370615,0.582115 -0.132924,0.11328 -0.410558,0.301862 -0.832249,0.564436 -0.487169,0.301862 -0.815877,0.586699 -0.986125,0.857785 -0.171557,0.240311 -0.290076,0.505504 -0.358175,0.796889 z"
         id="path171" />
      <path
         style="fill:#ffa600;fill-opacity:1;stroke:none;stroke-width:0.654798"
         d="m 5.0624367,10.008749 c -0.1237568,1.542049 -0.1957845,3.088682 -0.2239408,4.634004 h -0.00786 c 0.00131,0.04125 0.00393,0.08316 0.00393,0.124412 0,0.0406 -0.00262,0.08316 -0.00393,0.123102 h 0.00786 c 0.028156,1.546633 0.098874,3.093265 0.2239408,4.634004 0.3234702,4.03683 3.4966202,6.718227 6.6056003,6.022177 0.135544,-0.0275 0.278944,-0.02881 0.40663,-0.08185 0.756946,-0.313648 1.384898,-0.901002 2.084221,-1.333169 0.88987,-0.559197 -1.029997,-5.300588 -2.221074,-4.687698 -0.440024,0.230489 -1.655329,1.127562 -2.1438075,1.195007 -0.4354409,0.0609 -0.7779007,-0.515981 -0.8204622,-1.050296 -0.11459,-1.407161 -0.011786,-3.20589 -0.00197,-4.699485 h 0.00197 c 0,-0.03994 -0.00131,-0.08381 -0.00131,-0.123101 0,-0.0406 0.00131,-0.08512 0.00131,-0.124412 h -0.00262 C 8.9611023,13.148505 8.8583007,11.35043 8.9728947,9.9426148 9.0154562,9.4096094 9.3579161,8.8314228 9.7933559,8.8929739 10.281835,8.9610728 11.497795,9.8588006 11.937165,10.087325 13.127587,10.700871 15.048763,5.9568603 14.158238,5.4002822 13.45957,4.966806 12.831618,4.3794522 12.074017,4.0671137 11.946332,4.014075 11.802931,4.0121102 11.667388,3.9852636 8.5584073,3.2924879 5.3859119,5.9732302 5.0624417,10.008749 Z"
         id="path169" />
      <path
         style="fill:#ffa600;fill-opacity:1;stroke:none;stroke-width:0.654798"
         d="m 22.496429,14.768475 c 0,4.14356 -3.178388,7.555058 -7.225694,7.930911 -0.03732,-0.194474 -0.08185,-0.395498 -0.144711,-0.611581 -0.01375,-0.05173 -0.151258,-0.513362 -0.40139,-1.090238 3.3506,-0.104113 6.043784,-2.854264 6.043784,-6.230402 0,-3.376137 -2.693184,-6.1249788 -6.043784,-6.2304012 0.250788,-0.5801509 0.38895,-1.0444025 0.402701,-1.0967864 0.06155,-0.2128093 0.106077,-0.4125226 0.1434,-0.6050332 4.045996,0.3784732 7.225694,3.7899698 7.225694,7.9335308 z"
         id="path89" />
      <g
         aria-label="EMERGÊNCIA"
         id="text180"
         style="font-style:normal;font-variant:normal;font-weight:normal;font-stretch:normal;font-size:5.05465px;line-height:1.25;font-family:HomepageBaukasten;-inkscape-font-specification:'HomepageBaukasten, Normal';font-variant-ligatures:normal;font-variant-caps:normal;font-variant-numeric:normal;font-variant-east-asian:normal;letter-spacing:0px;word-spacing:0px;fill:#ffa600;fill-opacity:1;stroke:none;stroke-width:0.218726">
        <path
           d="m 24.958541,3.9952053 h 2.668856 v 0.692487 h -1.895494 v 0.7177603 h 1.668034 v 0.692487 h -1.668034 v 0.7430335 h 1.920767 v 0.692487 h -2.694129 z"
           style="font-style:normal;font-variant:normal;font-weight:normal;font-stretch:normal;font-size:5.05465px;font-family:HomepageBaukasten;-inkscape-font-specification:'HomepageBaukasten, Normal';font-variant-ligatures:normal;font-variant-caps:normal;font-variant-numeric:normal;font-variant-east-asian:normal;fill:#ffa600;fill-opacity:1;stroke:none;stroke-width:0.218726"
           id="path911" />
        <path
           d="m 31.110041,5.2234852 -0.995766,1.5113403 h -0.02022 L 29.1084,5.2386491 v 2.294811 H 28.345148 V 3.9952053 h 0.839071 l 0.930056,1.4961763 0.930056,-1.4961763 h 0.839071 v 3.5382548 h -0.773361 z"
           style="font-style:normal;font-variant:normal;font-weight:normal;font-stretch:normal;font-size:5.05465px;font-family:HomepageBaukasten;-inkscape-font-specification:'HomepageBaukasten, Normal';font-variant-ligatures:normal;font-variant-caps:normal;font-variant-numeric:normal;font-variant-east-asian:normal;fill:#ffa600;fill-opacity:1;stroke:none;stroke-width:0.218726"
           id="path913" />
        <path
           d="m 32.732574,3.9952053 h 2.668855 v 0.692487 h -1.895494 v 0.7177603 h 1.668035 v 0.692487 h -1.668035 v 0.7430335 h 1.920767 v 0.692487 h -2.694128 z"
           style="font-style:normal;font-variant:normal;font-weight:normal;font-stretch:normal;font-size:5.05465px;font-family:HomepageBaukasten;-inkscape-font-specification:'HomepageBaukasten, Normal';font-variant-ligatures:normal;font-variant-caps:normal;font-variant-numeric:normal;font-variant-east-asian:normal;fill:#ffa600;fill-opacity:1;stroke:none;stroke-width:0.218726"
           id="path915" />
        <path
           d="M 37.509209,6.4012186 H 36.897596 V 7.5334601 H 36.11918 V 3.9952053 h 1.617488 q 0.626777,0 0.980602,0.3133882 0.353826,0.3083337 0.353826,0.8542359 v 0.010109 q 0,0.4144813 -0.202186,0.692487 -0.202186,0.2729511 -0.556012,0.404372 l 0.864345,1.2636624 h -0.909837 z m 0.773361,-1.197952 q 0,-0.2476779 -0.161748,-0.3740441 -0.161749,-0.1314209 -0.449864,-0.1314209 h -0.773362 v 1.0159846 h 0.788526 q 0.278005,0 0.4347,-0.1364755 0.161748,-0.1364756 0.161748,-0.3639348 z"
           style="font-style:normal;font-variant:normal;font-weight:normal;font-stretch:normal;font-size:5.05465px;font-family:HomepageBaukasten;-inkscape-font-specification:'HomepageBaukasten, Normal';font-variant-ligatures:normal;font-variant-caps:normal;font-variant-numeric:normal;font-variant-east-asian:normal;fill:#ffa600;fill-opacity:1;stroke:none;stroke-width:0.218726"
           id="path917" />
        <path
           d="m 42.988447,7.0330498 q -0.662159,0.5610661 -1.51134,0.5610661 -0.540848,0 -0.965438,-0.2325139 Q 40.087078,7.1240335 39.849509,6.7095522 39.616996,6.2950709 39.616996,5.774442 V 5.764333 q 0,-0.5004103 0.237568,-0.9199463 0.242623,-0.4195359 0.667214,-0.6621591 0.424591,-0.2476778 0.950274,-0.2476778 0.459973,0 0.778416,0.1213116 0.318443,0.1162569 0.611613,0.3639347 L 42.37178,5.0111899 q -0.222405,-0.1870221 -0.429645,-0.2729511 -0.207241,-0.085929 -0.495356,-0.085929 -0.278006,0 -0.51052,0.1516395 -0.232514,0.1465849 -0.368989,0.3993174 -0.136476,0.2527325 -0.136476,0.5509568 v 0.010109 q 0,0.3184429 0.136476,0.5762301 0.136475,0.2577871 0.379099,0.404372 0.247677,0.1415302 0.556011,0.1415302 0.439755,0 0.732924,-0.2122953 V 6.1687047 H 41.451833 V 5.4964363 h 1.536614 z"
           style="font-style:normal;font-variant:normal;font-weight:normal;font-stretch:normal;font-size:5.05465px;font-family:HomepageBaukasten;-inkscape-font-specification:'HomepageBaukasten, Normal';font-variant-ligatures:normal;font-variant-caps:normal;font-variant-numeric:normal;font-variant-east-asian:normal;fill:#ffa600;fill-opacity:1;stroke:none;stroke-width:0.218726"
           id="path919" />
        <path
           d="m 44.075189,3.7171995 0.621722,-0.79358 h 0.72787 l 0.621722,0.79358 H 45.455109 L 45.055792,3.3835926 44.656474,3.7171995 Z m -0.338661,0.2780058 h 2.668855 v 0.692487 h -1.895494 v 0.7177603 h 1.668035 v 0.692487 h -1.668035 v 0.7430335 h 1.920767 v 0.692487 h -2.694128 z"
           style="font-style:normal;font-variant:normal;font-weight:normal;font-stretch:normal;font-size:5.05465px;font-family:HomepageBaukasten;-inkscape-font-specification:'HomepageBaukasten, Normal';font-variant-ligatures:normal;font-variant-caps:normal;font-variant-numeric:normal;font-variant-east-asian:normal;fill:#ffa600;fill-opacity:1;stroke:none;stroke-width:0.218726"
           id="path921" />
        <path
           d="M 47.891441,5.284141 V 7.5334601 H 47.123134 V 3.9952053 h 0.71776 l 1.657926,2.178554 v -2.178554 h 0.768306 v 3.5382548 h -0.662159 z"
           style="font-style:normal;font-variant:normal;font-weight:normal;font-stretch:normal;font-size:5.05465px;font-family:HomepageBaukasten;-inkscape-font-specification:'HomepageBaukasten, Normal';font-variant-ligatures:normal;font-variant-caps:normal;font-variant-numeric:normal;font-variant-east-asian:normal;fill:#ffa600;fill-opacity:1;stroke:none;stroke-width:0.218726"
           id="path923" />
        <path
           d="m 54.224912,6.9622847 q -0.29317,0.3133883 -0.631832,0.4751371 -0.333606,0.1566941 -0.818853,0.1566941 -0.510519,0 -0.925001,-0.2426232 Q 51.434745,7.1088696 51.197176,6.6943883 50.959608,6.2748523 50.959608,5.774442 V 5.764333 q 0,-0.5004103 0.232514,-0.9199463 0.237568,-0.4195359 0.657104,-0.6621591 0.424591,-0.2476778 0.955329,-0.2476778 0.470082,0 0.798635,0.1415302 0.328552,0.1364755 0.596448,0.4043719 L 53.704283,5.0516274 Q 53.486933,4.854496 53.269583,4.753403 53.052233,4.65231 52.7995,4.65231 q -0.293169,0 -0.530738,0.1516395 -0.232514,0.1465849 -0.363935,0.3993174 -0.131421,0.2476778 -0.131421,0.5509568 v 0.010109 q 0,0.303279 0.131421,0.5610661 0.131421,0.2527325 0.363935,0.404372 0.232514,0.1465849 0.530738,0.1465849 0.283061,0 0.490301,-0.101093 0.207241,-0.101093 0.439755,-0.3133883 z"
           style="font-style:normal;font-variant:normal;font-weight:normal;font-stretch:normal;font-size:5.05465px;font-family:HomepageBaukasten;-inkscape-font-specification:'HomepageBaukasten, Normal';font-variant-ligatures:normal;font-variant-caps:normal;font-variant-numeric:normal;font-variant-east-asian:normal;fill:#ffa600;fill-opacity:1;stroke:none;stroke-width:0.218726"
           id="path925" />
        <path
           d="m 54.882012,3.9952053 h 0.778416 v 3.5382548 h -0.778416 z"
           style="font-style:normal;font-variant:normal;font-weight:normal;font-stretch:normal;font-size:5.05465px;font-family:HomepageBaukasten;-inkscape-font-specification:'HomepageBaukasten, Normal';font-variant-ligatures:normal;font-variant-caps:normal;font-variant-numeric:normal;font-variant-east-asian:normal;fill:#ffa600;fill-opacity:1;stroke:none;stroke-width:0.218726"
           id="path927" />
        <path
           d="m 58.854959,6.7398801 h -1.496176 l -0.323498,0.79358 h -0.79358 L 57.7581,3.969932 h 0.717761 l 1.516395,3.5635281 h -0.813799 z m -1.21817,-0.6874324 h 0.940165 L 58.106871,4.9050422 Z"
           style="font-style:normal;font-variant:normal;font-weight:normal;font-stretch:normal;font-size:5.05465px;font-family:HomepageBaukasten;-inkscape-font-specification:'HomepageBaukasten, Normal';font-variant-ligatures:normal;font-variant-caps:normal;font-variant-numeric:normal;font-variant-east-asian:normal;fill:#ffa600;fill-opacity:1;stroke:none;stroke-width:0.218726"
           id="path929" />
      </g>
      <path
         d="M 32.582773,8.7416049 V 25.888685 H 28.885814 V 12.535852 l -2.967296,0.729663 -0.778307,-3.064584 4.888742,-1.4593261 z"
         style="font-style:normal;font-variant:normal;font-weight:normal;font-stretch:normal;font-size:24.3221px;font-family:HomepageBaukasten;-inkscape-font-specification:'HomepageBaukasten, Normal';font-variant-ligatures:normal;font-variant-caps:normal;font-variant-numeric:normal;font-variant-east-asian:normal;fill:#ffa600;fill-opacity:1;stroke:none;stroke-width:1.05246"
         id="path932" />
      <path
         d="m 47.353118,16.865186 q 0,2.797042 -0.875596,4.913064 -0.851274,2.091701 -2.529498,3.259162 -1.653903,1.143138 -4.037469,1.143138 -1.751191,0 -3.088907,-0.510764 -1.337715,-0.535086 -2.505176,-1.50797 l 1.97009,-2.845686 q 0.948562,0.778308 1.799836,1.118817 0.875595,0.340509 1.921445,0.340509 1.507971,0 2.383566,-1.04585 0.875596,-1.04585 1.070173,-2.821363 -1.362038,1.16746 -3.453739,1.16746 -2.797041,0 -4.450944,-1.459326 -1.629581,-1.483648 -1.629581,-4.06179 0,-1.702547 0.826952,-3.064585 0.826951,-1.362037 2.286277,-2.1403446 1.483648,-0.7783071 3.380772,-0.7783071 1.678225,0 2.797042,0.4377977 1.143138,0.4377978 2.116022,1.410682 0.972884,0.972884 1.483648,2.505176 0.535087,1.532292 0.535087,3.94018 z m -3.81857,-2.456532 q 0,-1.167461 -0.802629,-1.897124 -0.80263,-0.729663 -2.188989,-0.729663 -1.362038,0 -2.140345,0.729663 -0.753985,0.705341 -0.753985,1.872802 0,1.167461 0.802629,1.872802 0.802629,0.705341 2.164667,0.705341 1.362037,0 2.140345,-0.705341 0.778307,-0.705341 0.778307,-1.84848 z"
         style="font-style:normal;font-variant:normal;font-weight:normal;font-stretch:normal;font-size:24.3221px;font-family:HomepageBaukasten;-inkscape-font-specification:'HomepageBaukasten, Normal';font-variant-ligatures:normal;font-variant-caps:normal;font-variant-numeric:normal;font-variant-east-asian:normal;fill:#ffa600;fill-opacity:1;stroke:none;stroke-width:1.05246"
         id="path934" />
      <path
         d="m 48.0896,8.8632154 h 11.504353 v 2.8213636 l -4.305012,4.110435 q 2.018734,0.340509 3.283484,1.483648 1.289071,1.118817 1.289071,3.307805 0,1.605259 -0.753985,2.89433 -0.729663,1.26475 -2.140345,1.994413 -1.38636,0.70534 -3.234839,0.70534 -4.159079,0 -6.639933,-2.942974 l 2.578142,-2.456532 q 0.92424,1.021528 1.897124,1.532293 0.972884,0.510764 2.213311,0.510764 1.070172,0 1.726869,-0.559409 0.681019,-0.58373 0.681019,-1.532292 0,-1.04585 -0.875596,-1.605258 -0.851273,-0.583731 -2.456532,-0.583731 h -1.556614 l -0.583731,-2.383566 4.061791,-4.086112 H 48.0896 Z"
         style="font-style:normal;font-variant:normal;font-weight:normal;font-stretch:normal;font-size:24.3221px;font-family:HomepageBaukasten;-inkscape-font-specification:'HomepageBaukasten, Normal';font-variant-ligatures:normal;font-variant-caps:normal;font-variant-numeric:normal;font-variant-east-asian:normal;fill:#ffa600;fill-opacity:1;stroke:none;stroke-width:1.05246"
         id="path936" />
    </g>
  </g>
</svg>
